<svg width="1200" height="675" viewBox="0 0 1200 675" fill="none" xmlns="http://www.w3.org/2000/svg">
  <rect width="1200" height="675" rx="28" fill="url(#bg)"/>
  <circle cx="165" cy="150" r="118" fill="#38BDF8" fill-opacity="0.2"/>
  <circle cx="998" cy="555" r="140" fill="#818CF8" fill-opacity="0.22"/>
  <rect x="108" y="94" width="476" height="487" rx="30" fill="#0B1F3A" fill-opacity="0.6" stroke="#BFDBFE" stroke-opacity="0.25" stroke-width="3"/>
  <rect x="147" y="144" width="398" height="88" rx="18" fill="#1D4ED8" fill-opacity="0.38"/>
  <text x="182" y="200" fill="#DBEAFE" font-family="Arial, sans-serif" font-size="38" font-weight="700">99.99% Uptime</text>
  <rect x="147" y="264" width="398" height="266" rx="18" fill="#0F172A" fill-opacity="0.68"/>
  <path d="M176 468L248 424L312 438L372 346L452 354L516 306" stroke="#22D3EE" stroke-width="8" stroke-linecap="round" stroke-linejoin="round"/>
  <circle cx="176" cy="468" r="8" fill="#67E8F9"/>
  <circle cx="248" cy="424" r="8" fill="#67E8F9"/>
  <circle cx="312" cy="438" r="8" fill="#67E8F9"/>
  <circle cx="372" cy="346" r="8" fill="#67E8F9"/>
  <circle cx="452" cy="354" r="8" fill="#67E8F9"/>
  <circle cx="516" cy="306" r="8" fill="#67E8F9"/>
  <rect x="646" y="122" width="446" height="430" rx="30" fill="#0F172A" fill-opacity="0.56" stroke="#C7D2FE" stroke-opacity="0.28" stroke-width="3"/>
  <text x="695" y="188" fill="#E0E7FF" font-family="Arial, sans-serif" font-size="54" font-weight="700">UptimeFlux</text>
  <text x="695" y="238" fill="#BFDBFE" font-family="Arial, sans-serif" font-size="30" font-weight="500">Uptime monitoring system</text>
  <rect x="695" y="286" width="348" height="194" rx="24" fill="#1E40AF" fill-opacity="0.34"/>
  <rect x="734" y="330" width="58" height="104" rx="10" fill="#93C5FD"/>
  <rect x="812" y="302" width="58" height="132" rx="10" fill="#60A5FA"/>
  <rect x="890" y="352" width="58" height="82" rx="10" fill="#38BDF8"/>
  <rect x="968" y="312" width="58" height="122" rx="10" fill="#6366F1"/>
  <defs>
    <linearGradient id="bg" x1="70" y1="56" x2="1120" y2="648" gradientUnits="userSpaceOnUse">
      <stop stop-color="#0B3B8C"/>
      <stop offset="1" stop-color="#111827"/>
    </linearGradient>
  </defs>
</svg>
